Coordinates
version=1
nRows=32
nColumns=18
inDegrees=yes

Units are S.I. units (second, meters, Newtons, ...)
If the header above contains a line with 'inDegrees', this indicates whether rotational values are in degrees (yes) or radians (no).

endheader
time	ground_thorax_rot_x	ground_thorax_rot_y	ground_thorax_rot_z	ground_thorax_tx	ground_thorax_ty	ground_thorax_tz	clav_prot	clav_elev	scapula_abduction	scapula_elevation	scapula_upward_rot	scapula_winging	plane_elv	shoulder_elv	axial_rot	elbow_flexion	pro_sup
      6.15000000	      1.86774053	     -0.33609795	     -8.44705731	     -0.00394317	      0.00522800	     -0.00352051	    -25.92094731	     -3.26730828	    -18.13940006	     -3.62398619	     13.65972883	      4.85665528	     31.97887563	     26.59004603	     11.20438935	      0.00000000	     34.32000000
      6.16000000	      1.86058621	      0.04450810	     -8.43456036	     -0.00392679	      0.00527373	     -0.00375619	    -26.11752756	     -3.14877198	    -18.56425723	     -3.52118021	     13.56334483	      4.83137744	     31.70939123	     25.87023457	     12.65643054	      0.00000000	     34.32000000
      6.17000000	      1.88833343	      0.05994644	     -8.43567747	     -0.00384873	      0.00526524	     -0.00372292	    -26.00583400	     -3.00158634	    -18.41172536	     -3.40312827	     13.57021865	      4.79332861	     31.02651581	     25.16809947	     14.56886683	      0.00000000	     34.32000000
      6.18000000	      1.99689740	     -0.04966226	     -8.61626950	     -0.00368819	      0.00504974	     -0.00330173	    -25.99641572	     -2.93867290	    -18.49223987	     -3.31911708	     13.43603481	      4.81016473	     30.94301332	     25.02226236	     14.56059311	      0.00000000	     34.32000000
      6.19000000	      1.94701131	      0.01051985	     -8.49658989	     -0.00384411	      0.00513719	     -0.00355572	    -25.69462997	     -3.07320936	    -17.96540130	     -3.39012429	     13.39109324	      4.88210059	     28.20134197	     24.57348379	     16.19733825	      0.00000000	     34.32000000
      6.20000000	      2.03142184	     -0.03302406	     -8.51551599	     -0.00392609	      0.00508406	     -0.00334211	    -25.53641303	     -3.25131792	    -17.71304553	     -3.48518160	     13.27450671	      4.97506637	     26.19119028	     24.47298115	     17.11399431	      0.00000000	     34.32000000
      6.21000000	      2.32077618	     -0.15775397	     -8.70409016	     -0.00393143	      0.00471473	     -0.00278312	    -25.53454076	     -3.20341369	    -17.71718321	     -3.45118040	     13.28497836	      4.95804296	     25.32429442	     24.53488605	     17.29210408	      0.00000000	     34.32000000
      6.22000000	      2.19203542	     -0.44366622	     -8.54314496	     -0.00401181	      0.00494285	     -0.00270405	    -25.10753480	     -3.50516150	    -17.06096527	     -3.58256517	     13.01338199	      5.14065422	     22.59371558	     24.25148684	     19.69580137	      0.00000000	     34.32000000
      6.23000000	      2.31912722	     -0.63387547	     -8.74434626	     -0.00377964	      0.00462176	     -0.00231940	    -25.12225772	     -3.42897321	    -17.19580123	     -3.48464345	     12.86041834	      5.15617149	     22.48352460	     24.12094270	     19.68772035	      0.00000000	     34.32000000
      6.24000000	      2.38495781	     -0.33043360	     -8.64076108	     -0.00393514	      0.00474234	     -0.00259962	    -25.36497624	     -3.30498354	    -17.58505907	     -3.43316360	     12.96485411	      5.08041411	     21.17679127	     23.40186705	     20.03121969	      0.00000000	     34.32000000
      6.25000000	      2.31907889	     -0.43566813	     -8.67150848	     -0.00397943	      0.00475875	     -0.00258495	    -25.35975923	     -3.31307620	    -17.58936496	     -3.43193909	     12.93813645	      5.08999913	     20.24839399	     22.76245072	     20.79326035	      0.00000000	     34.32000000
      6.26000000	      2.42813472	     -0.63954036	     -8.88210129	     -0.00386213	      0.00443231	     -0.00220174	    -25.36547977	     -3.22505534	    -17.71697748	     -3.32214104	     12.77713107	      5.10509768	     20.12189207	     22.63182754	     20.80684645	      0.00000000	     34.32000000
      6.27000000	      2.38456545	     -0.75014853	     -8.55901913	     -0.00409360	      0.00482205	     -0.00215847	    -24.99803920	     -3.38699233	    -17.10003396	     -3.39597490	     12.67806985	      5.19572983	     16.75368387	     21.81959565	     26.88649785	      0.00000000	     34.32000000
      6.28000000	      2.47773318	     -0.75850473	     -8.60397700	     -0.00414617	      0.00470608	     -0.00199699	    -24.93452619	     -3.58775360	    -17.00165694	     -3.51540211	     12.56391522	      5.28809270	     14.90421998	     21.76726950	     27.16485904	      0.00000000	     34.32000000
      6.29000000	      2.50739602	     -0.91289402	     -8.61326007	     -0.00422251	      0.00464089	     -0.00187183	    -24.76297740	     -3.75669491	    -16.70371671	     -3.61447615	     12.49072625	      5.36437708	     13.05826289	     21.72141606	     27.64736214	      0.00000000	     34.32000000
      6.30000000	      2.56075600	     -1.09326350	     -8.79043354	     -0.00416114	      0.00437608	     -0.00154991	    -24.78189448	     -3.67783217	    -16.81580729	     -3.52811638	     12.38923483	      5.36558742	     12.96340014	     21.67308483	     27.64769486	      0.00000000	     34.32000000
      6.31000000	      2.58214563	     -1.27388308	     -8.97273232	     -0.00396512	      0.00426694	     -0.00149971	    -24.80091078	     -3.57957667	    -16.93166978	     -3.42761569	     12.29075362	      5.36048230	     12.84720219	     21.62964078	     27.65231762	      0.00000000	     34.32000000
      6.32000000	      2.36940750	     -1.33790890	     -8.61577268	     -0.00415409	      0.00469080	     -0.00188180	    -24.52441435	     -3.63321099	    -16.55560157	     -3.39812627	     12.09308233	      5.43537344	      9.99111506	     21.00328335	     32.50966087	      0.00000000	     34.32000000
      6.33000000	      2.49426470	     -1.55569725	     -8.82265870	     -0.00401192	      0.00428851	     -0.00157630	    -24.55276274	     -3.56001810	    -16.70100841	     -3.30751499	     11.95834560	      5.44747666	      9.83619267	     20.96074361	     32.50644506	      0.00000000	     34.32000000
      6.34000000	      2.45537699	     -1.53921875	     -8.71780671	     -0.00420794	      0.00450100	     -0.00169087	    -24.42533270	     -3.99581497	    -16.59436174	     -3.52514479	     11.55264096	      5.68611641	      7.09210727	     21.25332030	     33.01587850	      0.00000000	     34.32000000
      6.35000000	      2.48886558	     -1.84364125	     -8.76051096	     -0.00418882	      0.00443931	     -0.00140132	    -24.13544207	     -4.30000965	    -16.12188467	     -3.69028991	     11.36489778	      5.83261868	      4.95346370	     21.48875213	     34.05906193	      0.00000000	     34.32000000
      6.36000000	      2.77222970	     -1.93349615	     -8.93866824	     -0.00417956	      0.00418634	     -0.00085330	    -24.14229305	     -4.18671612	    -16.16035597	     -3.60488538	     11.37019609	      5.79574559	      4.52657694	     21.77185858	     34.13977265	      0.00000000	     34.32000000
      6.37000000	      2.57507621	     -2.12971936	     -8.68448149	     -0.00435048	      0.00444953	     -0.00096482	    -23.70711257	     -4.20832030	    -15.37724022	     -3.60793173	     11.42102470	      5.79082549	      1.89282250	     21.73532137	     35.00102693	      0.00000000	     34.32000000
      6.38000000	      2.54169675	     -2.27628467	     -8.85021030	     -0.00433221	      0.00430618	     -0.00060904	    -23.73291891	     -4.10128661	    -15.47137081	     -3.51672248	     11.38260453	      5.76768975	      1.80572445	     21.77527966	     35.00587868	      0.00000000	     34.32000000
      6.39000000	      2.75631835	     -2.33652724	     -8.58899706	     -0.00463152	      0.00432360	     -0.00058442	    -23.46174838	     -3.71770657	    -15.18103033	     -3.16814219	     11.24868482	      5.68582319	      0.33811599	     22.08229880	     35.35074135	      0.00000000	     34.32000000
      6.40000000	      2.67120185	     -2.41460188	     -8.71471267	     -0.00448824	      0.00434097	     -0.00056316	    -23.27063732	     -4.19544568	    -14.96205823	     -3.40884615	     10.82396534	      5.93421254	     -1.53180993	     22.51867311	     36.37582684	      0.00000000	     34.32000000
      6.41000000	      3.00927797	     -2.35550188	     -8.86578668	     -0.00435149	      0.00409907	     -0.00028914	    -23.26223995	     -4.23972389	    -15.06589983	     -3.37860930	     10.59007676	      6.00705220	     -2.22584560	     22.98755514	     36.78766774	      0.00000000	     34.32000000
      6.42000000	      2.92244197	     -2.20218257	     -8.72673745	     -0.00438115	      0.00421523	     -0.00031055	    -23.25491183	     -4.48201466	    -15.05113363	     -3.53537523	     10.48088267	      6.10888412	     -4.75559554	     22.60948162	     42.35165111	      0.00000000	     34.32000000
      6.43000000	      2.94800532	     -2.35140596	     -8.87217846	     -0.00425770	      0.00392408	     -0.00014563	    -23.28053039	     -4.41003279	    -15.15114654	     -3.46284265	     10.41326624	      6.10422729	     -4.84175538	     22.63246751	     42.34891976	      0.00000000	     34.32000000
      6.44000000	      3.05217082	     -2.41084170	     -8.85516695	     -0.00430691	      0.00406947	     -0.00011017	    -23.34425809	     -4.34391336	    -15.26355457	     -3.42328264	     10.44041293	      6.07821197	     -5.46602798	     22.80155211	     42.35399471	      0.00000000	     34.32000000
      6.45000000	      2.83999341	     -2.42329385	     -8.76533489	     -0.00443318	      0.00419552	     -0.00034396	    -23.22144173	     -4.50585730	    -14.95898398	     -3.56572290	     10.53206407	      6.10268812	     -7.61003919	     22.62217162	     43.15347721	      0.00000000	     34.32000000
      6.46000000	      2.85140383	     -2.42076252	     -8.70159370	     -0.00447318	      0.00427290	     -0.00025296	    -23.19982455	     -4.48191351	    -14.84012056	     -3.58912349	     10.69038792	      6.05480982	     -9.44828038	     22.12419374	     47.02468359	      0.00000000	     34.32000000
